<?xml version="1.0" encoding="UTF-8"?>
<svg id="Layer_1" data-name="Layer 1" xmlns="http://www.w3.org/2000/svg" viewBox="0 0 720 188.69">
  <defs>
    <style>
      .cls-1 {
        fill: #fff7e1;
      }

      .cls-1, .cls-2, .cls-3 {
        stroke-width: 0px;
      }

      .cls-2 {
        fill: #777c53;
      }

      .cls-3 {
        fill: #404f30;
      }
    </style>
  </defs>
  <g>
    <polygon class="cls-1" points="163.41 47.17 163.41 141.52 81.7 188.69 0 141.52 0 47.17 81.7 0 163.41 47.17"/>
    <g>
      <path class="cls-2" d="M102.99,63.46l17.79,17.79c2.14-3.31,3.39-7.25,3.39-11.49,0-11.7-9.48-21.18-21.18-21.18s-21.18,9.48-21.18,21.18c0,4.24,1.25,8.18,3.39,11.49l17.79-17.79Z"/>
      <path class="cls-2" d="M102.99,69.76l-29.69,29.69-19.03-19.04-36.43,36.43v14.37l63.87,36.87,63.87-36.87v-18.88l-42.58-42.58ZM102.99,90.92l-44.93,30.08,13.59-13.59-17.4-11.16-31.97,22.45,31.97-31.97,19.03,19.04,29.69-29.69,38.12,38.12-38.12-23.27Z"/>
    </g>
    <g>
      <path class="cls-3" d="M81.7,5.15L4.46,49.75v89.19l77.24,44.6,77.24-44.6V49.75L81.7,5.15ZM150.03,133.79l-68.33,39.45L13.38,133.79V54.9L81.7,15.45l68.33,39.45v78.9Z"/>
      <path class="cls-3" d="M81.7,20.6L17.84,57.47v53.07l36.43-36.43,19.03,19.04,8.69-8.69c-2.92-4.16-4.64-9.23-4.64-14.7,0-14.14,11.5-25.64,25.64-25.64s25.64,11.5,25.64,25.64c0,5.46-1.72,10.53-4.64,14.7l21.58,21.58v-48.56l-63.87-36.87ZM44.14,72.32c-.31.07-.63.15-.98.24-.34.09-.7.18-1.07.29-.36.11-.74.23-1.1.36-.19.06-.36.14-.55.21-.18.08-.36.15-.54.24-.18.08-.35.16-.52.26-.17.09-.33.19-.49.28-.08.05-.16.1-.23.16-.08.05-.15.1-.23.15-.07.06-.14.11-.21.17-.07.06-.14.11-.21.17-.13.12-.26.23-.37.36-.06.06-.12.12-.17.18-.05.06-.1.13-.15.19-.05.06-.1.13-.15.19-.04.07-.08.13-.13.2-.04.07-.09.13-.13.19-.04.07-.07.13-.11.2-.15.25-.25.51-.36.74-.08.23-.16.44-.22.62-.1.36-.17.57-.17.57,0,0-.07-.21-.17-.57-.06-.18-.14-.39-.22-.62-.11-.23-.2-.49-.36-.74-.03-.06-.07-.13-.11-.2-.04-.06-.09-.13-.13-.19-.04-.06-.09-.13-.13-.2-.05-.06-.1-.13-.15-.19-.05-.06-.1-.13-.15-.19-.06-.06-.12-.12-.17-.18-.11-.13-.24-.24-.37-.36-.06-.06-.14-.11-.21-.17-.07-.06-.14-.11-.21-.17-.08-.05-.15-.1-.23-.15-.08-.05-.15-.11-.23-.16-.16-.1-.32-.2-.49-.28-.17-.1-.34-.18-.52-.26-.17-.09-.36-.16-.54-.24-.19-.06-.36-.15-.55-.21-.37-.13-.74-.25-1.1-.36-.36-.11-.72-.2-1.07-.29-.34-.09-.67-.17-.98-.24-1.25-.28-2.08-.47-2.08-.47,0,0,.05-.02.15-.05.1-.03.24-.07.43-.11.37-.08.91-.17,1.57-.2.33-.02.68-.02,1.06,0,.38.02.78.05,1.19.12.21.03.41.07.62.12.21.04.42.1.63.16.21.06.43.13.64.21.21.09.42.16.63.26.21.1.41.2.61.32.2.11.39.24.58.37.19.13.36.28.53.43.16.16.33.31.47.48.14.17.29.33.4.52.06.09.11.18.17.27.05.09.1.18.14.27.04.09.09.18.13.27.03.09.07.18.1.27.03.09.06.18.09.26,0,.04.02.07.03.11,0-.04.02-.07.03-.11.03-.09.06-.17.09-.26.03-.09.07-.18.1-.27.04-.09.09-.18.13-.27.05-.09.09-.18.14-.27.06-.09.11-.18.17-.27.11-.19.26-.35.4-.52.14-.18.31-.32.47-.48.17-.14.34-.3.53-.43.19-.13.38-.27.58-.37.2-.12.4-.22.61-.32.21-.1.42-.18.63-.26.21-.07.43-.15.64-.21.21-.06.42-.12.63-.16.21-.05.42-.09.62-.12.41-.06.81-.1,1.19-.12.38-.01.73-.01,1.06,0,.65.03,1.19.12,1.57.2.19.04.33.08.43.11.1.03.15.05.15.05,0,0-.83.19-2.08.47ZM57.74,53.42c-.25.06-.52.12-.81.19-.28.07-.58.15-.88.24-.3.09-.61.19-.91.3-.15.05-.3.12-.45.17-.15.07-.3.12-.44.2-.15.07-.29.13-.43.21-.14.07-.27.15-.41.23-.07.04-.13.08-.19.13-.06.04-.13.09-.19.13-.06.05-.12.09-.17.14-.06.05-.12.09-.17.14-.11.1-.22.19-.31.3-.05.05-.1.1-.14.15-.04.05-.08.11-.13.16-.04.05-.08.11-.13.16-.04.05-.07.11-.11.16-.04.05-.07.11-.11.16-.03.06-.06.11-.09.16-.13.21-.2.42-.29.61-.07.19-.13.37-.18.51-.08.29-.14.47-.14.47,0,0-.06-.18-.14-.47-.05-.15-.11-.32-.18-.51-.09-.19-.17-.4-.29-.61-.03-.05-.06-.11-.09-.16-.04-.05-.07-.1-.11-.16-.04-.05-.07-.11-.11-.16-.04-.05-.08-.1-.13-.16-.04-.05-.08-.11-.13-.16-.05-.05-.1-.1-.14-.15-.09-.1-.2-.2-.31-.3-.05-.05-.11-.09-.17-.14-.06-.05-.12-.09-.17-.14-.06-.04-.13-.08-.19-.13-.06-.04-.12-.09-.19-.13-.13-.08-.26-.16-.41-.23-.14-.08-.28-.15-.43-.21-.14-.07-.3-.13-.44-.2-.15-.05-.3-.12-.45-.17-.3-.11-.61-.21-.91-.3-.3-.09-.6-.17-.88-.24-.28-.07-.55-.14-.81-.19-1.03-.23-1.71-.38-1.71-.38,0,0,.04-.02.12-.04.08-.02.2-.06.36-.09.31-.07.75-.14,1.29-.17.27-.02.56-.02.87,0,.31.01.64.04.98.1.17.03.34.06.51.1.17.03.35.08.52.13.18.05.35.11.53.17.17.07.35.13.52.22.17.08.34.17.5.26.17.09.32.2.48.31.16.11.3.23.44.35.13.13.27.25.39.4.11.14.24.27.33.43.05.07.09.15.14.22.04.07.08.15.12.23.04.07.07.15.11.22.03.08.06.15.08.22.03.07.05.14.07.22,0,.03.01.06.02.09,0-.03.01-.06.02-.09.02-.07.05-.14.07-.22.03-.07.05-.15.08-.22.04-.07.07-.15.11-.22.04-.07.07-.15.12-.23.05-.07.09-.14.14-.22.09-.15.21-.29.33-.43.11-.14.25-.26.39-.4.14-.12.28-.25.44-.35.16-.11.31-.22.48-.31.16-.1.33-.18.5-.26.17-.08.35-.14.52-.22.17-.06.35-.12.53-.17.17-.05.35-.1.52-.13.17-.04.34-.07.51-.1.34-.05.67-.08.98-.1.31-.01.6-.01.87,0,.54.03.98.1,1.29.17.15.03.27.07.36.09.08.02.12.04.12.04,0,0-.69.15-1.71.38ZM70.81,63.33c-.19.04-.39.09-.61.15-.21.05-.43.11-.66.18-.23.07-.46.14-.68.22-.12.04-.23.09-.34.13-.11.05-.23.09-.33.15-.11.05-.22.1-.32.16-.11.06-.21.12-.3.18-.05.03-.1.06-.14.1-.05.03-.09.06-.14.1-.04.04-.09.07-.13.1-.04.04-.09.07-.13.11-.08.07-.16.14-.23.22-.04.04-.07.08-.11.11-.03.04-.06.08-.09.12-.03.04-.06.08-.09.12-.03.04-.05.08-.08.12-.03.04-.05.08-.08.12-.02.04-.04.08-.07.12-.1.16-.15.32-.22.46-.05.15-.1.27-.14.38-.06.22-.11.35-.11.35,0,0-.04-.13-.11-.35-.04-.11-.09-.24-.14-.38-.07-.14-.13-.3-.22-.46-.02-.04-.04-.08-.07-.12-.03-.04-.05-.08-.08-.12-.03-.04-.05-.08-.08-.12-.03-.04-.06-.08-.09-.12-.03-.04-.06-.08-.09-.12-.04-.04-.07-.08-.11-.11-.07-.08-.15-.15-.23-.22-.04-.04-.08-.07-.13-.11-.04-.03-.09-.07-.13-.1-.05-.03-.09-.06-.14-.1-.05-.03-.09-.07-.14-.1-.1-.06-.2-.12-.3-.18-.1-.06-.21-.11-.32-.16-.11-.06-.22-.1-.33-.15-.12-.04-.23-.09-.34-.13-.23-.08-.46-.16-.68-.22-.23-.07-.45-.13-.66-.18-.21-.05-.42-.1-.61-.15-.77-.17-1.29-.29-1.29-.29,0,0,.03-.01.09-.03.06-.02.15-.04.27-.07.23-.05.57-.11.97-.13.2-.01.42-.01.66,0,.23.01.48.03.73.07.13.02.26.04.39.07.13.03.26.06.39.1.13.04.26.08.39.13.13.05.26.1.39.16.13.06.26.12.38.2.13.07.24.15.36.23.12.08.22.18.33.27.1.1.2.19.29.3.09.11.18.21.24.32.04.06.07.11.11.16.03.06.06.11.09.17.03.06.05.11.08.17.02.06.04.11.06.17.02.05.04.11.06.16,0,.02.01.04.02.07,0-.02.01-.04.02-.07.02-.05.04-.11.06-.16.02-.06.04-.11.06-.17.03-.05.05-.11.08-.17.03-.06.06-.11.09-.17.03-.05.07-.11.11-.16.07-.12.16-.21.24-.32.09-.11.19-.2.29-.3.11-.09.21-.19.33-.27.12-.08.23-.17.36-.23.12-.07.25-.14.38-.2.13-.06.26-.11.39-.16.13-.05.26-.09.39-.13.13-.04.26-.07.39-.1.13-.03.26-.05.39-.07.25-.04.5-.06.73-.07.23,0,.45,0,.66,0,.41.02.74.08.97.13.12.02.21.05.27.07.06.02.09.03.09.03,0,0-.51.12-1.29.29Z"/>
    </g>
  </g>
  <g>
    <path class="cls-2" d="M435.69,127.72v-6.4h277.01v6.4h-277.01Z"/>
    <g>
      <path class="cls-3" d="M203.15,83.71c2.23-1.12,4.03-2.74,5.36-4.81,1.33-2.08,2.01-4.53,2.01-7.28v-24.04h-6.66v23.88c0,1.42-.35,2.72-1.04,3.84-.69,1.13-1.66,2.02-2.87,2.66-1.22.64-2.65.97-4.23.97s-2.93-.32-4.12-.96c-1.18-.64-2.14-1.54-2.85-2.67-.71-1.14-1.06-2.39-1.06-3.83v-23.88h-6.71v24.04c0,2.75.67,5.2,1.98,7.27,1.31,2.07,3.1,3.69,5.31,4.82,2.19,1.12,4.69,1.68,7.43,1.68s5.24-.57,7.45-1.68Z"/>
      <polygon class="cls-3" points="239.57 47.58 213.2 47.58 213.2 53.99 222.86 53.99 222.86 84.98 229.67 84.98 229.67 53.99 239.57 53.99 239.57 47.58"/>
      <path class="cls-3" d="M293.72,73.24c.97,0,1.91-.13,2.82-.39v12.13h6.76v-37.4h-6.76v18.68c-.37.3-.8.54-1.29.72-1.62.59-3.43.24-5.56-1.05-3.7-2.22-7.29-2.94-10.69-2.16v-16.2h-6.76v37.4h6.76v-14.92c.13-.06.27-.12.42-.18.34-.13.87-.27,1.58-.41.63-.13,1.44-.07,2.41.17,1.01.25,2.09.71,3.19,1.37,2.38,1.48,4.78,2.23,7.12,2.23Z"/>
      <polygon class="cls-3" points="326.31 84.98 352.17 84.98 352.17 78.58 333.08 78.58 333.08 70.63 347.63 70.63 347.63 64.23 333.08 64.23 333.08 53.99 352.17 53.99 352.17 47.58 326.31 47.58 326.31 84.98"/>
      <path class="cls-3" d="M419.51,48.96h0c-2.02-.92-4.48-1.38-7.32-1.38h-10.76v37.4h6.76v-11.32c0-.09,0-.31.4-.6.42-.3.94-.54,1.55-.7.7-.18,1.34-.31,1.9-.39.55-.08,1.04-.12,1.46-.12,2.07-.07,3.88-.42,5.37-1.04,1.69-.7,3.08-1.66,4.14-2.87,1.05-1.19,1.82-2.55,2.3-4.02.47-1.45.71-2.93.71-4.42,0-2.48-.57-4.64-1.7-6.43-1.13-1.8-2.75-3.18-4.81-4.12ZM419.25,59.62c0,.52-.11,1.14-.32,1.83-.21.68-.55,1.34-1.03,1.96-.45.59-1.1,1.09-1.92,1.47-.67.32-1.54.52-2.54.58-1.71.04-3.43.31-5.15.81-.04.01-.07.02-.11.03v-12.31h4.82c1.23,0,2.24.18,3.02.53.78.35,1.42.8,1.89,1.34.48.54.81,1.12,1.01,1.78.21.7.32,1.36.32,1.98Z"/>
      <path class="cls-3" d="M462.2,52.86c-1.84-1.75-3.97-3.15-6.32-4.16-2.37-1.01-4.94-1.53-7.63-1.53s-5.32.51-7.71,1.53c-2.37,1.01-4.49,2.41-6.3,4.17-1.81,1.76-3.24,3.81-4.26,6.1-1.02,2.3-1.53,4.77-1.53,7.34,0,2.7.52,5.24,1.53,7.54,1.01,2.3,2.45,4.33,4.26,6.06,1.81,1.72,3.93,3.08,6.31,4.04,2.38.96,4.97,1.44,7.69,1.44s5.26-.5,7.62-1.47c2.36-.97,4.48-2.35,6.33-4.08,1.85-1.74,3.31-3.79,4.34-6.08,1.04-2.3,1.56-4.81,1.56-7.44s-.52-5.04-1.56-7.34c-1.03-2.29-2.49-4.35-4.34-6.11ZM448.35,78.99c-1.81,0-3.52-.34-5.09-1-1.57-.67-2.97-1.59-4.14-2.75-1.17-1.16-2.1-2.51-2.77-4.01-.66-1.49-1-3.13-1-4.87s.32-3.41.95-4.94c.63-1.53,1.54-2.9,2.71-4.07h0c1.17-1.17,2.56-2.1,4.13-2.77,1.56-.66,3.28-1,5.09-1s3.46.33,5.01.98c1.55.65,2.93,1.57,4.1,2.74,1.17,1.17,2.11,2.55,2.77,4.09.66,1.53,1,3.19,1,4.93s-.33,3.43-1,4.92c-.67,1.51-1.59,2.86-2.73,4.02-1.14,1.15-2.5,2.07-4.05,2.74-1.55.66-3.23,1-5.01,1Z"/>
      <polygon class="cls-3" points="519.5 84.98 545.36 84.98 545.36 78.58 526.26 78.58 526.26 70.63 540.81 70.63 540.81 64.23 526.26 64.23 526.26 53.99 545.36 53.99 545.36 47.58 519.5 47.58 519.5 84.98"/>
      <path class="cls-3" d="M573.96,78.63c-1.43-.51-2.31-1.61-2.68-3.36-.42-2.04-1.17-3.8-2.22-5.27.91-.56,1.7-1.22,2.36-1.96,1.07-1.18,1.85-2.52,2.31-3.99.45-1.43.68-2.9.68-4.38,0-1.97-.37-3.72-1.09-5.2-.72-1.48-1.74-2.74-3.01-3.74-1.26-.98-2.75-1.74-4.43-2.25-1.66-.5-3.51-.75-5.49-.75h-10.71v37.35h6.76v-13.07h4.85c.15.03.31.07.48.14.2.08.47.23.79.43.29.19.56.43.81.73.26.32.53.77.81,1.33.27.56.49,1.22.64,1.97.92,4.2,3.34,6.95,7.17,8.17,1.25.44,2.59.66,3.98.66h.43l1.14-.19v-6.51l-1.34.19c-.79.03-1.54-.08-2.22-.31ZM567.5,59.82c0,.62-.11,1.29-.32,1.98-.2.66-.54,1.29-1.01,1.86-.45.55-1.1,1.01-1.94,1.38h0c-.85.37-1.97.56-3.34.56h-4.46v-11.52h4.82c1.19,0,2.18.19,2.96.55.78.37,1.42.84,1.89,1.4.48.57.84,1.19,1.06,1.85.22.67.34,1.32.34,1.94Z"/>
      <polygon class="cls-3" points="626.32 84.98 652.19 84.98 652.19 78.58 633.09 78.58 633.09 70.63 647.64 70.63 647.64 64.23 633.09 64.23 633.09 53.99 652.19 53.99 652.19 47.58 626.32 47.58 626.32 84.98"/>
      <polygon class="cls-3" points="693.63 47.58 693.63 53.99 703.28 53.99 703.28 84.98 710.09 84.98 710.09 53.99 720 53.99 720 47.58 693.63 47.58"/>
      <path class="cls-3" d="M250.92,47.17l-16.6,37.81h7.77l3.19-7.89c1.54-.45,3.25,0,5.25,1.36,2.22,1.49,4.45,2.25,6.63,2.25.93,0,1.84-.13,2.72-.4l1.93,4.69h7.86l-16.49-37.81h-2.26ZM253.89,73.53c-2.06-1.4-4.14-2.23-6.2-2.48l4.12-10.3,5.76,13.96c-1.07.14-2.3-.26-3.68-1.18Z"/>
      <polygon class="cls-3" points="393.1 47.17 375.68 68.25 358.46 47.17 356.49 47.17 356.49 84.98 363.1 84.98 363.1 64.18 375.11 77.99 376.05 77.99 388.36 63.46 388.36 84.98 395.12 84.98 395.12 47.17 393.1 47.17"/>
      <polygon class="cls-3" points="483.95 85.39 492.23 66.78 499.81 85.39 501.97 85.39 516.77 47.79 509.55 47.79 501 71.48 493.91 53.9 492.23 50.02 483.36 72.02 474.41 47.79 466.72 47.79 481.71 85.39 483.95 85.39"/>
      <polygon class="cls-3" points="617.99 47.17 600.58 68.25 583.36 47.17 581.39 47.17 581.39 84.98 588 84.98 588 64.18 600.01 77.99 600.94 77.99 613.25 63.46 613.25 84.98 620.01 84.98 620.01 47.17 617.99 47.17"/>
      <polygon class="cls-3" points="663.17 60.85 688.33 85.39 690.48 85.39 690.48 47.58 683.77 47.58 683.87 72.05 658.71 47.17 656.5 47.17 656.5 84.98 663.27 84.98 663.17 60.85"/>
    </g>
    <g>
      <rect class="cls-3" x="181.08" y="104.67" width="6.76" height="37.4"/>
      <rect class="cls-3" x="234.55" y="104.67" width="6.76" height="37.4"/>
      <polygon class="cls-3" points="244.4 111.08 254.05 111.08 254.05 142.07 260.87 142.07 260.87 111.08 270.77 111.08 270.77 104.67 244.4 104.67 244.4 111.08"/>
      <rect class="cls-3" x="273.87" y="104.67" width="6.76" height="37.4"/>
      <polygon class="cls-3" points="313.34 111.08 322.99 111.08 322.99 142.07 329.81 142.07 329.81 111.08 339.71 111.08 339.71 104.67 313.34 104.67 313.34 111.08"/>
      <rect class="cls-3" x="342.81" y="104.67" width="6.76" height="37.4"/>
      <polygon class="cls-3" points="390.14 142.07 416 142.07 416 135.67 396.91 135.67 396.91 127.72 411.46 127.72 411.46 121.32 396.91 121.32 396.91 111.08 416 111.08 416 104.67 390.14 104.67 390.14 142.07"/>
      <path class="cls-3" d="M299.79,104.26l-16.6,37.81h7.77l3.19-7.89c1.53-.45,3.25,0,5.25,1.36,2.22,1.49,4.45,2.25,6.63,2.25.93,0,1.84-.13,2.72-.4l1.93,4.69h7.86l-16.49-37.81h-2.26ZM302.75,130.62c-2.06-1.4-4.14-2.23-6.2-2.48l4.12-10.3,5.76,13.96c-1.07.14-2.3-.26-3.68-1.18Z"/>
      <polygon class="cls-3" points="200.87 117.94 226.03 142.48 228.19 142.48 228.19 104.67 221.47 104.67 221.57 129.14 196.41 104.26 194.21 104.26 194.21 142.07 200.97 142.07 200.87 117.94"/>
      <polygon class="cls-3" points="370.98 142.48 387.53 104.67 379.77 104.67 370.1 127.74 360.03 104.67 352.18 104.67 368.73 142.48 370.98 142.48"/>
    </g>
  </g>
</svg>