<?xml version="1.0" encoding="UTF-8"?>
<svg id="Layer_1" data-name="Layer 1" xmlns="http://www.w3.org/2000/svg" viewBox="0 0 720 402.82">
  <defs>
    <style>
      .cls-1 {
        fill: #fff7e1;
      }

      .cls-1, .cls-2, .cls-3 {
        stroke-width: 0px;
      }

      .cls-2 {
        fill: #777c53;
      }

      .cls-3 {
        fill: #404f30;
      }
    </style>
  </defs>
  <g>
    <polygon class="cls-1" points="469.14 63.01 469.14 189.03 360 252.04 250.86 189.03 250.86 63.01 360 0 469.14 63.01"/>
    <g>
      <path class="cls-2" d="M388.44,84.76l23.77,23.77c2.86-4.42,4.53-9.69,4.53-15.34,0-15.63-12.67-28.3-28.3-28.3s-28.3,12.67-28.3,28.3c0,5.66,1.67,10.92,4.53,15.34l23.77-23.77Z"/>
      <path class="cls-2" d="M388.44,93.19l-39.66,39.66-25.42-25.43-48.66,48.66v19.2l85.31,49.25,85.31-49.25v-25.22l-56.87-56.87ZM388.44,121.44l-60.01,40.18,18.16-18.16-23.24-14.9-42.7,29.99,42.7-42.7,25.42,25.43,39.66-39.66,50.92,50.92-50.92-31.08Z"/>
    </g>
    <g>
      <path class="cls-3" d="M360,6.88l-103.18,59.57v119.14l103.18,59.57,103.18-59.57v-119.14L360,6.88ZM451.27,178.71l-91.27,52.69-91.27-52.69v-105.39l91.27-52.69,91.27,52.69v105.39Z"/>
      <path class="cls-3" d="M360,27.52l-85.31,49.25v70.89l48.66-48.66,25.42,25.43,11.61-11.61c-3.9-5.56-6.2-12.33-6.2-19.63,0-18.89,15.37-34.25,34.25-34.25s34.25,15.37,34.25,34.25c0,7.3-2.3,14.07-6.2,19.63l28.82,28.82v-64.87l-85.31-49.25ZM309.82,96.61c-.41.09-.85.2-1.31.31-.46.12-.94.24-1.42.39-.49.14-.98.3-1.48.48-.25.08-.49.19-.74.28-.24.11-.49.2-.72.32-.24.11-.47.22-.69.35-.23.12-.44.25-.66.38-.11.06-.21.14-.31.21-.1.07-.2.14-.31.21-.09.08-.19.15-.28.23-.09.08-.19.14-.27.23-.17.16-.35.31-.5.48-.08.08-.16.16-.23.25-.07.08-.13.17-.2.26-.07.09-.14.17-.2.25-.06.09-.11.18-.17.26-.06.09-.12.17-.17.26-.05.09-.1.18-.14.26-.21.34-.33.69-.48.99-.11.31-.22.59-.29.83-.13.47-.23.76-.23.76,0,0-.1-.29-.23-.76-.08-.24-.19-.52-.29-.83-.15-.3-.27-.65-.48-.99-.05-.09-.09-.17-.14-.26-.06-.08-.11-.17-.17-.26-.06-.09-.11-.18-.17-.26-.07-.08-.14-.17-.2-.25-.07-.08-.13-.17-.2-.26-.08-.08-.15-.16-.23-.25-.15-.17-.33-.32-.5-.48-.08-.08-.18-.15-.27-.23-.09-.07-.19-.15-.28-.23-.1-.07-.2-.14-.31-.21-.1-.07-.2-.15-.31-.21-.21-.13-.43-.26-.66-.38-.22-.13-.46-.24-.69-.35-.23-.12-.48-.21-.72-.32-.25-.09-.49-.2-.74-.28-.49-.18-.99-.34-1.48-.48-.49-.14-.97-.27-1.42-.39-.46-.11-.9-.22-1.31-.31-1.67-.37-2.78-.62-2.78-.62,0,0,.07-.03.2-.06.13-.04.33-.09.58-.15.5-.11,1.22-.23,2.09-.27.44-.02.91-.03,1.42,0,.5.02,1.04.07,1.58.15.27.04.55.09.83.15.28.05.56.13.85.21.28.08.57.18.85.28.28.12.56.22.84.35.28.13.55.27.81.43.27.14.52.33.77.5.25.17.48.38.71.57.21.22.44.41.63.65.19.23.38.44.53.69.08.12.15.24.23.35.07.12.13.24.19.37.06.12.12.24.17.36.05.12.09.24.13.36.04.12.08.23.12.35.01.05.02.1.03.15.01-.05.02-.1.03-.15.04-.11.08-.23.12-.35.04-.12.09-.24.13-.36.06-.12.11-.24.17-.36.06-.12.12-.25.19-.37.08-.12.15-.23.23-.35.15-.25.34-.46.53-.69.18-.23.41-.43.63-.65.23-.19.46-.4.71-.57.25-.17.5-.36.77-.5.26-.16.54-.29.81-.43.28-.13.56-.23.84-.35.28-.1.57-.2.85-.28.28-.08.57-.16.85-.21.28-.06.56-.11.83-.15.55-.09,1.08-.13,1.58-.15.5-.02.98-.02,1.42,0,.87.04,1.59.16,2.09.27.25.05.44.11.58.15.13.04.2.06.2.06,0,0-1.11.25-2.78.62ZM327.98,71.36c-.34.07-.7.17-1.08.26-.38.1-.77.2-1.17.32-.4.12-.81.25-1.22.39-.21.07-.4.16-.61.23-.2.09-.4.16-.59.26-.19.09-.39.18-.57.29-.19.1-.37.21-.54.31-.09.05-.17.11-.26.17-.08.06-.17.11-.25.17-.08.06-.15.12-.23.19-.08.06-.16.12-.23.19-.14.13-.29.26-.41.4-.06.07-.13.14-.19.2-.06.07-.11.14-.17.21-.06.07-.11.14-.17.21-.05.07-.09.15-.14.22-.05.07-.1.14-.14.21-.04.07-.08.15-.12.22-.17.28-.27.57-.39.82-.09.26-.18.49-.24.68-.11.39-.19.63-.19.63,0,0-.08-.24-.19-.63-.06-.19-.15-.42-.24-.68-.12-.25-.22-.54-.39-.82-.04-.07-.08-.14-.12-.22-.05-.07-.09-.14-.14-.21-.05-.07-.09-.14-.14-.22-.06-.07-.11-.14-.17-.21-.06-.07-.11-.14-.17-.21-.06-.07-.13-.13-.19-.2-.12-.14-.27-.27-.41-.4-.07-.07-.15-.13-.23-.19-.08-.06-.15-.12-.23-.19-.08-.06-.17-.11-.25-.17-.08-.06-.16-.12-.26-.17-.18-.11-.35-.22-.54-.31-.18-.11-.38-.2-.57-.29-.19-.1-.39-.17-.59-.26-.21-.07-.4-.16-.61-.23-.41-.14-.81-.28-1.22-.39-.4-.12-.8-.22-1.17-.32-.38-.09-.74-.18-1.08-.26-1.37-.31-2.29-.51-2.29-.51,0,0,.06-.02.17-.05.11-.03.27-.08.47-.12.41-.09,1.01-.19,1.73-.22.36-.02.75-.02,1.17,0,.41.02.85.06,1.31.13.23.03.46.07.69.13.23.05.47.11.7.17.23.06.47.15.7.23.23.1.47.18.69.29.23.11.45.22.67.35.22.12.43.27.64.41.21.14.4.31.59.47.18.18.36.34.52.53.15.19.31.37.44.57.06.1.13.2.19.29.06.1.11.2.16.3.05.1.1.2.14.3.04.1.08.2.11.3.03.1.07.19.1.29,0,.04.02.08.03.12,0-.04.02-.08.03-.12.03-.09.07-.19.1-.29.03-.1.07-.2.11-.3.05-.1.09-.2.14-.3.05-.1.1-.2.16-.3.06-.1.12-.19.19-.29.12-.21.28-.38.44-.57.15-.19.34-.35.52-.53.19-.16.38-.33.59-.47.21-.14.41-.29.64-.41.22-.13.44-.24.67-.35.23-.11.46-.19.69-.29.23-.08.47-.16.7-.23.23-.07.47-.13.7-.17.23-.05.46-.09.69-.13.45-.07.89-.11,1.31-.13.42-.02.81-.01,1.17,0,.72.04,1.32.13,1.73.22.21.04.37.09.47.12.11.03.17.05.17.05,0,0-.92.21-2.29.51ZM345.45,84.59c-.25.06-.52.12-.81.19-.28.07-.58.15-.88.24-.3.09-.61.19-.91.3-.15.05-.3.12-.46.17-.15.07-.3.12-.44.2-.15.07-.29.13-.43.21-.14.07-.27.15-.41.24-.07.04-.13.09-.19.13-.06.04-.13.09-.19.13-.06.05-.12.09-.17.14-.06.05-.12.09-.17.14-.11.1-.22.19-.31.3-.05.05-.1.1-.14.15-.04.05-.08.11-.13.16-.04.05-.08.11-.13.16-.04.06-.07.11-.11.16-.04.05-.07.11-.11.16-.03.06-.06.11-.09.16-.13.21-.21.43-.3.61-.07.19-.13.37-.18.51-.08.29-.14.47-.14.47,0,0-.06-.18-.14-.47-.05-.15-.12-.32-.18-.51-.09-.19-.17-.4-.3-.61-.03-.05-.06-.11-.09-.16-.04-.05-.07-.1-.11-.16-.04-.05-.07-.11-.11-.16-.04-.05-.08-.1-.13-.16-.04-.05-.08-.11-.13-.16-.05-.05-.1-.1-.14-.15-.09-.11-.2-.2-.31-.3-.05-.05-.11-.09-.17-.14-.06-.05-.12-.09-.17-.14-.06-.04-.13-.09-.19-.13-.06-.04-.12-.09-.19-.13-.13-.08-.27-.16-.41-.24-.14-.08-.28-.15-.43-.21-.14-.07-.3-.13-.44-.2-.15-.05-.3-.12-.46-.17-.31-.11-.61-.21-.91-.3-.3-.09-.6-.17-.88-.24-.28-.07-.56-.14-.81-.19-1.03-.23-1.72-.39-1.72-.39,0,0,.04-.02.12-.04.08-.02.2-.06.36-.09.31-.07.76-.14,1.3-.17.27-.02.56-.02.88,0,.31.01.64.04.98.1.17.03.34.06.52.1.17.03.35.08.52.13.18.05.35.11.53.17.17.07.35.13.52.22.17.08.34.17.5.26.17.09.32.2.48.31.16.11.3.23.44.35.13.13.27.25.39.4.12.14.24.28.33.43.05.07.09.15.14.22.04.07.08.15.12.23.04.07.07.15.11.22.03.08.06.15.08.22.03.07.05.15.07.22,0,.03.01.06.02.09,0-.03.01-.06.02-.09.02-.07.05-.14.07-.22.03-.07.05-.15.08-.22.04-.07.07-.15.11-.22.04-.08.07-.15.12-.23.05-.07.09-.15.14-.22.09-.15.21-.29.33-.43.11-.14.26-.26.39-.4.14-.12.29-.25.44-.35.16-.11.31-.22.48-.31.16-.1.33-.18.5-.26.17-.08.35-.14.52-.22.18-.06.35-.12.53-.17.18-.05.35-.1.52-.13.17-.04.35-.07.52-.1.34-.05.67-.08.98-.1.31-.01.61-.01.88,0,.54.03.99.1,1.3.17.15.03.27.07.36.09.08.02.12.04.12.04,0,0-.69.15-1.72.39Z"/>
    </g>
  </g>
  <g>
    <g>
      <path class="cls-3" d="M29.62,324.32c2.98-1.5,5.39-3.66,7.16-6.43,1.78-2.78,2.68-6.05,2.68-9.72v-32.11h-8.9v31.9c0,1.9-.47,3.63-1.39,5.13-.93,1.51-2.21,2.7-3.83,3.55-1.64.86-3.54,1.29-5.65,1.29s-3.91-.43-5.5-1.29c-1.58-.85-2.86-2.05-3.81-3.57-.95-1.52-1.42-3.2-1.42-5.12v-31.9H0v32.11c0,3.67.89,6.94,2.64,9.72,1.75,2.77,4.13,4.93,7.09,6.43,2.93,1.49,6.27,2.25,9.93,2.25s7-.76,9.96-2.24Z"/>
      <polygon class="cls-3" points="78.27 276.06 43.04 276.06 43.04 284.62 55.93 284.62 55.93 326.02 65.03 326.02 65.03 284.62 78.27 284.62 78.27 276.06"/>
      <path class="cls-3" d="M150.59,310.33c1.29,0,2.55-.17,3.77-.52v16.21h9.03v-49.96h-9.03v24.96c-.49.4-1.07.73-1.73.97-2.16.78-4.58.33-7.42-1.4-4.94-2.96-9.74-3.93-14.28-2.88v-21.64h-9.03v49.96h9.03v-19.93c.17-.08.36-.16.56-.24.45-.18,1.16-.36,2.12-.55.84-.17,1.93-.09,3.23.23,1.35.33,2.79.95,4.26,1.83,3.18,1.98,6.38,2.98,9.51,2.98Z"/>
      <polygon class="cls-3" points="194.13 326.02 228.67 326.02 228.67 317.47 203.16 317.47 203.16 306.85 222.6 306.85 222.6 298.3 203.16 298.3 203.16 284.62 228.67 284.62 228.67 276.06 194.13 276.06 194.13 326.02"/>
      <path class="cls-3" d="M318.62,277.91h0c-2.69-1.23-5.98-1.85-9.78-1.85h-14.37v49.96h9.03v-15.12c0-.12,0-.41.53-.8.55-.41,1.25-.72,2.07-.93.93-.24,1.79-.41,2.53-.52.74-.11,1.38-.16,1.95-.16,2.77-.1,5.18-.56,7.17-1.39,2.26-.93,4.12-2.22,5.53-3.83,1.4-1.59,2.43-3.4,3.07-5.37.63-1.93.95-3.92.95-5.9,0-3.31-.76-6.2-2.27-8.59-1.51-2.4-3.67-4.25-6.42-5.5ZM318.27,292.14c0,.69-.14,1.52-.43,2.44-.27.9-.74,1.78-1.37,2.62-.61.79-1.46,1.45-2.56,1.96-.9.43-2.05.69-3.39.77-2.28.05-4.59.41-6.88,1.08-.05.01-.09.03-.14.04v-16.44h6.43c1.64,0,3,.24,4.04.71,1.05.47,1.9,1.07,2.53,1.78.64.72,1.08,1.49,1.35,2.38.28.93.43,1.82.43,2.65Z"/>
      <path class="cls-3" d="M375.63,283.11c-2.46-2.34-5.3-4.21-8.44-5.56-3.16-1.35-6.59-2.04-10.2-2.04s-7.11.69-10.3,2.04c-3.17,1.35-6,3.22-8.42,5.57-2.42,2.35-4.33,5.09-5.69,8.15-1.36,3.07-2.05,6.37-2.05,9.8,0,3.61.69,7,2.05,10.07,1.35,3.07,3.27,5.79,5.7,8.09,2.42,2.3,5.25,4.12,8.43,5.39,3.18,1.28,6.63,1.93,10.27,1.93s7.03-.66,10.18-1.97c3.15-1.3,5.99-3.14,8.45-5.46,2.47-2.33,4.42-5.06,5.8-8.13,1.38-3.08,2.08-6.42,2.08-9.94s-.7-6.73-2.08-9.81c-1.38-3.06-3.33-5.81-5.79-8.16ZM357.14,318.01c-2.42,0-4.7-.45-6.79-1.34-2.1-.89-3.96-2.13-5.52-3.67-1.57-1.54-2.81-3.35-3.7-5.36-.88-1.99-1.33-4.18-1.33-6.5s.43-4.55,1.27-6.6c.84-2.05,2.06-3.88,3.63-5.44h0c1.56-1.56,3.42-2.81,5.52-3.7,2.09-.89,4.38-1.34,6.79-1.34s4.62.44,6.7,1.3c2.07.87,3.92,2.1,5.48,3.66,1.57,1.57,2.81,3.4,3.7,5.46.88,2.04,1.33,4.26,1.33,6.58s-.45,4.58-1.33,6.57c-.89,2.02-2.12,3.82-3.64,5.37-1.52,1.54-3.34,2.77-5.41,3.66-2.07.89-4.32,1.33-6.69,1.33Z"/>
      <polygon class="cls-3" points="452.17 326.02 486.72 326.02 486.72 317.47 461.21 317.47 461.21 306.85 480.65 306.85 480.65 298.3 461.21 298.3 461.21 284.62 486.72 284.62 486.72 276.06 452.17 276.06 452.17 326.02"/>
      <path class="cls-3" d="M524.93,317.53c-1.91-.67-3.09-2.15-3.58-4.49-.56-2.72-1.56-5.08-2.97-7.03,1.21-.75,2.27-1.63,3.15-2.62,1.43-1.58,2.47-3.37,3.09-5.32.6-1.91.91-3.88.91-5.86,0-2.63-.49-4.96-1.45-6.94-.97-1.98-2.32-3.66-4.03-4.99-1.68-1.31-3.67-2.32-5.92-3-2.22-.67-4.69-1.01-7.34-1.01h-14.3v49.89h9.03v-17.46h6.47c.2.04.41.1.63.19.27.11.62.3,1.06.58.39.25.75.58,1.08.97.35.43.71,1.03,1.08,1.78.36.75.65,1.63.86,2.63,1.23,5.61,4.46,9.29,9.58,10.91,1.67.59,3.46.89,5.31.89h.58l1.52-.25v-8.69l-1.79.26c-1.05.03-2.06-.11-2.97-.41ZM516.29,292.41c0,.83-.14,1.72-.43,2.65-.27.89-.72,1.72-1.35,2.48-.6.74-1.47,1.36-2.59,1.84h0c-1.13.5-2.63.75-4.46.75h-5.95v-15.39h6.43c1.58,0,2.91.25,3.95.74,1.04.49,1.89,1.12,2.53,1.87.65.76,1.12,1.59,1.41,2.47.3.9.45,1.77.45,2.59Z"/>
      <polygon class="cls-3" points="594.87 326.02 629.42 326.02 629.42 317.47 603.9 317.47 603.9 306.85 623.34 306.85 623.34 298.3 603.9 298.3 603.9 284.62 629.42 284.62 629.42 276.06 594.87 276.06 594.87 326.02"/>
      <polygon class="cls-3" points="684.77 276.06 684.77 284.62 697.67 284.62 697.67 326.02 706.77 326.02 706.77 284.62 720 284.62 720 276.06 684.77 276.06"/>
      <path class="cls-3" d="M93.42,275.52l-22.17,50.51h10.37l4.26-10.55c2.05-.6,4.35,0,7.01,1.81,2.96,1.99,5.94,3,8.86,3,1.24,0,2.46-.18,3.64-.53l2.58,6.26h10.5l-22.03-50.51h-3.01ZM97.38,310.72c-2.75-1.87-5.53-2.98-8.28-3.31l5.51-13.76,7.7,18.65c-1.43.18-3.08-.35-4.92-1.58Z"/>
      <polygon class="cls-3" points="283.34 275.52 260.08 303.67 237.07 275.52 234.44 275.52 234.44 326.02 243.27 326.02 243.27 298.23 259.32 316.68 260.56 316.68 277.01 297.27 277.01 326.02 286.04 326.02 286.04 275.52 283.34 275.52"/>
      <polygon class="cls-3" points="404.69 326.57 415.75 301.7 425.87 326.57 428.76 326.57 448.54 276.33 438.89 276.33 427.47 307.99 418 284.5 415.76 279.32 403.91 308.71 391.95 276.33 381.68 276.33 401.71 326.57 404.69 326.57"/>
      <polygon class="cls-3" points="583.74 275.52 560.48 303.67 537.48 275.52 534.85 275.52 534.85 326.02 543.67 326.02 543.67 298.23 559.72 316.68 560.96 316.68 577.41 297.27 577.41 326.02 586.44 326.02 586.44 275.52 583.74 275.52"/>
      <polygon class="cls-3" points="644.09 293.79 677.69 326.57 680.57 326.57 680.57 276.06 671.61 276.06 671.74 308.74 638.13 275.52 635.19 275.52 635.19 326.02 644.22 326.02 644.09 293.79"/>
    </g>
    <g>
      <rect class="cls-3" x="203.1" y="352.32" width="9.03" height="49.96"/>
      <rect class="cls-3" x="274.52" y="352.32" width="9.03" height="49.96"/>
      <polygon class="cls-3" points="287.68 360.87 300.57 360.87 300.57 402.28 309.67 402.28 309.67 360.87 322.91 360.87 322.91 352.32 287.68 352.32 287.68 360.87"/>
      <rect class="cls-3" x="327.04" y="352.32" width="9.03" height="49.96"/>
      <polygon class="cls-3" points="379.77 360.87 392.66 360.87 392.66 402.28 401.76 402.28 401.76 360.87 414.99 360.87 414.99 352.32 379.77 352.32 379.77 360.87"/>
      <rect class="cls-3" x="419.13" y="352.32" width="9.03" height="49.96"/>
      <polygon class="cls-3" points="482.36 402.28 516.9 402.28 516.9 393.72 491.39 393.72 491.39 383.11 510.83 383.11 510.83 374.56 491.39 374.56 491.39 360.87 516.9 360.87 516.9 352.32 482.36 352.32 482.36 402.28"/>
      <path class="cls-3" d="M361.66,351.77l-22.17,50.51h10.37l4.26-10.55c2.05-.6,4.35,0,7.01,1.81,2.96,1.99,5.94,3,8.86,3,1.24,0,2.46-.18,3.64-.53l2.58,6.26h10.5l-22.03-50.51h-3.01ZM365.62,386.98c-2.75-1.87-5.53-2.98-8.28-3.31l5.51-13.76,7.7,18.65c-1.43.18-3.08-.35-4.92-1.58Z"/>
      <polygon class="cls-3" points="229.54 370.05 263.14 402.82 266.02 402.82 266.02 352.32 257.05 352.32 257.18 385 223.57 351.77 220.63 351.77 220.63 402.28 229.67 402.28 229.54 370.05"/>
      <polygon class="cls-3" points="456.76 402.82 478.86 352.32 468.51 352.32 455.58 383.13 442.13 352.32 431.65 352.32 453.75 402.82 456.76 402.82"/>
    </g>
  </g>
</svg>